<svg xmlns="http://www.w3.org/2000/svg" viewBox="0 0 283.46 126.33"><defs><style>.cls-1{fill:#fff;}</style></defs><title>Asset 1</title><g id="Layer_2" data-name="Layer 2"><g id="Layer_1-2" data-name="Layer 1"><polygon class="cls-1" points="66.39 3.28 59.04 3.28 33.2 3.28 33.2 10.63 59.04 10.63 59.04 65.51 6.87 3.28 0 3.28 0 78.1 0 78.1 33.19 117.67 52.94 94.14 47.3 89.41 33.19 106.22 7.36 75.42 7.36 15.77 59.63 78.1 66.4 78.1 66.4 3.28 66.39 3.28"/><path class="cls-1" d="M119.89,3.3V32h-5.31L98.8,12V32H93.45V3.3H98.8l15.78,20.05V3.3Z"/><path class="cls-1" d="M134.67,11c6.28,0,10.92,4.27,10.92,10.84,0,5.35-3.45,10.77-10.92,10.77-6.42,0-10.95-4.2-10.95-10.77S128.25,11,134.67,11Zm0,4.75c-3.71,0-5.38,3-5.38,6.09s1.67,6,5.38,6,5.35-3,5.35-6S138.35,15.74,134.67,15.74Z"/><path class="cls-1" d="M163.34,12.17l-2.41,5a4.9,4.9,0,0,0-2.49-.74c-2.38,0-3.56,2.89-3.75,5.35V32h-5.31V11.58h4.08l.93,2.79c1-1.86,2.49-3.38,4.87-3.38A8.53,8.53,0,0,1,163.34,12.17Z"/><path class="cls-1" d="M174.78,11c6.28,0,10.92,4.27,10.92,10.84,0,5.35-3.46,10.77-10.92,10.77-6.42,0-11-4.2-11-10.77S168.36,11,174.78,11Zm0,4.75c-3.71,0-5.38,3-5.38,6.09s1.67,6,5.38,6,5.35-3,5.35-6S178.46,15.74,174.78,15.74Z"/><path class="cls-1" d="M208.46,8.91v2.67h5.76v4.75h-5.76V32H203V16.33h-7.76V32h-5.46V16.33h-2.26V11.58h2.26V10c0-10.18,9.92-11.26,15.08-7.28C207-.15,210.76-.67,214.81.81l0,4.35C211.77,4,208.46,3.86,208.46,8.91ZM203,11.58V9.35a18.77,18.77,0,0,1,.19-2.6c-3.08-3-7.95-2.71-7.95,3.16v1.67Z"/><path class="cls-1" d="M118,44.89V60.15c0,8.62-3.53,14.11-12.29,14.11S93.45,68.77,93.45,60.15V44.89h5.49V59.48c0,7.8,3.2,10,6.8,10s6.79-2.23,6.79-10V44.89Z"/><path class="cls-1" d="M142.5,61V73.6h-5.61l0-11.66c0-2.64-.78-4.24-3.12-4.24-1.59,0-3.41,1.23-5.05,3.34V73.6h-5.57V53.17h4.35l.92,2.82a8.73,8.73,0,0,1,6.65-3.38C139.09,52.61,142.5,54.66,142.5,61Z"/><path class="cls-1" d="M149.74,41.62a3,3,0,0,1,3,3.23,3.1,3.1,0,0,1-3,3.31,3.06,3.06,0,0,1-3-3.31A2.94,2.94,0,0,1,149.74,41.62Zm2.75,32h-5.38V53.17h5.38Z"/><path class="cls-1" d="M177.89,53.17,169.68,73.6H164l-8.24-20.43h6.05l5,15.71,5-15.71Z"/><path class="cls-1" d="M179.52,63.35c0-5.91,3.38-10.77,10.22-10.77S200,57.37,198.8,65H185.24c.41,2.78,2,4.83,5.13,4.83a11.27,11.27,0,0,0,6.27-2.08l2.23,3.75a13.73,13.73,0,0,1-8.5,2.67C183.8,74.19,179.52,69.88,179.52,63.35Zm5.72-1.6h8.92c.07-2.41-1-5.09-4.31-5.09S185.24,59.56,185.24,61.75Z"/><path class="cls-1" d="M216.85,53.77l-2.42,5a4.87,4.87,0,0,0-2.49-.74c-2.37,0-3.56,2.9-3.75,5.35V73.6h-5.31V53.17H207L207.9,56c1-1.86,2.48-3.38,4.86-3.38A8.49,8.49,0,0,1,216.85,53.77Z"/><path class="cls-1" d="M227.06,74.19c-3.57,0-7.62-1.34-9.18-2.78l2.23-3.94a13.81,13.81,0,0,0,7.21,2.45c2.37,0,3.49-.85,3.49-2,0-3.86-12.26-.82-12.26-8.8,0-3.42,3-6.5,8.47-6.5A15,15,0,0,1,235.38,55l-2.16,3.75a11.26,11.26,0,0,0-6.2-1.93c-2.27,0-3.27.74-3.27,1.86,0,3.86,12.33.63,12.33,8.94C236.08,71.44,232.81,74.19,227.06,74.19Z"/><path class="cls-1" d="M242.32,41.62a3,3,0,0,1,3,3.23,3.1,3.1,0,0,1-3,3.31,3.06,3.06,0,0,1-3-3.31A2.94,2.94,0,0,1,242.32,41.62Zm2.75,32h-5.39V53.17h5.39Z"/><path class="cls-1" d="M263.23,69.1l-.08,4.35c-5.94,2.11-11.73,0-11.73-8.73v-7.2h-3.09V53.17h3.09V46.78h5.42v6.39h5.27l-.41,4.35h-4.86V65.2C256.84,70.51,260.29,70.11,263.23,69.1Z"/><path class="cls-1" d="M283.46,53.17,275.74,76c-1.78,5.65-4.34,9.29-11.81,7.39l.37-5.2c4.68,1.9,5.39-.7,6.76-4.56l-7.2-20.43h5.57l4.34,14.26L278,53.17Z"/><path class="cls-1" d="M118.22,91.38l-4.45,3.2a9,9,0,0,0-7.13-3.72c-5.61,0-9,4.31-9,10s3.38,10,9,10a8.82,8.82,0,0,0,7.09-3.71l4.49,3.15a14.14,14.14,0,0,1-11.58,5.65c-8.47,0-14.49-6.28-14.49-15s5.87-15,14.49-15A14.12,14.12,0,0,1,118.22,91.38Z"/><path class="cls-1" d="M131.52,94.17c6.27,0,10.91,4.27,10.91,10.84,0,5.35-3.45,10.77-10.91,10.77-6.43,0-11-4.19-11-10.77S125.09,94.17,131.52,94.17Zm0,4.75c-3.72,0-5.39,3-5.39,6.09s1.67,6,5.39,6,5.34-3,5.34-6S135.19,98.92,131.52,98.92Z"/><path class="cls-1" d="M154,110.55l.86,4.23c-5.24,1.89-9.18.71-9.18-5.5V84.14h5.42v24.51C151.12,110.55,152.13,111,154,110.55Z"/><path class="cls-1" d="M166.54,110.55l.85,4.23c-5.24,1.89-9.17.71-9.17-5.5V84.14h5.42v24.51C163.64,110.55,164.64,111,166.54,110.55Z"/><path class="cls-1" d="M169.73,104.94c0-5.91,3.38-10.77,10.21-10.77,7,0,10.25,4.79,9.06,12.44H175.45c.41,2.79,2,4.83,5.12,4.83a11.2,11.2,0,0,0,6.28-2.08l2.23,3.75a13.78,13.78,0,0,1-8.51,2.67C174,115.78,169.73,111.47,169.73,104.94Zm5.72-1.6h8.91c.07-2.41-1-5.09-4.31-5.09S175.45,101.15,175.45,103.34Z"/><path class="cls-1" d="M213.55,94.76v20.61c0,5.83-3.08,11-10.85,11-5.08,0-8.31-2.19-10.06-4.79l3.9-3a7.54,7.54,0,0,0,5.79,3.08c2.79,0,5.8-1.89,5.8-6.83v-2.9a7.81,7.81,0,0,1-6.54,2.86c-6,0-9.58-4.31-9.58-10.25s3.56-10.36,9.47-10.36a8,8,0,0,1,6.94,3.42l.82-2.83Zm-5.42,9.81c0-3.27-2-5.57-5.35-5.57s-5.35,2.3-5.35,5.57,2.12,5.57,5.35,5.57S208.13,107.91,208.13,104.57Z"/><path class="cls-1" d="M216.93,104.94c0-5.91,3.38-10.77,10.21-10.77,7,0,10.25,4.79,9.06,12.44H222.65c.4,2.79,2,4.83,5.12,4.83a11.26,11.26,0,0,0,6.28-2.08l2.23,3.75a13.78,13.78,0,0,1-8.51,2.67C221.2,115.78,216.93,111.47,216.93,104.94Zm5.72-1.6h8.91c.07-2.41-1-5.09-4.31-5.09S222.65,101.15,222.65,103.34Z"/></g></g></svg>